<svg version="1.1" xmlns="http://www.w3.org/2000/svg" width="64px" height="64px" transform="rotate(0) scale(1, 1)">
<path d="M0 0 C4.62 0 9.24 0 14 0 C14 0.99 14 1.98 14 3 C15.98 3 17.96 3 20 3 C20 3.99 20 4.98 20 6 C22.31 6 24.62 6 27 6 C27 8.31 27 10.62 27 13 C27.99 13 28.98 13 30 13 C30 14.98 30 16.96 30 19 C30.99 19 31.98 19 33 19 C33 23.62 33 28.24 33 33 C32.01 33 31.02 33 30 33 C30 34.98 30 36.96 30 39 C29.01 39 28.02 39 27 39 C27 41.31 27 43.62 27 46 C24.69 46 22.38 46 20 46 C20 46.99 20 47.98 20 49 C18.02 49 16.04 49 14 49 C14 49.99 14 50.98 14 52 C9.38 52 4.76 52 0 52 C0 51.01 0 50.02 0 49 C-1.98 49 -3.96 49 -6 49 C-6 48.01 -6 47.02 -6 46 C-8.31 46 -10.62 46 -13 46 C-13 43.69 -13 41.38 -13 39 C-13.99 39 -14.98 39 -16 39 C-16 37.02 -16 35.04 -16 33 C-16.99 33 -17.98 33 -19 33 C-19 28.38 -19 23.76 -19 19 C-18.01 19 -17.02 19 -16 19 C-16 17.02 -16 15.04 -16 13 C-15.01 13 -14.02 13 -13 13 C-13 10.69 -13 8.38 -13 6 C-10.69 6 -8.38 6 -6 6 C-6 5.01 -6 4.02 -6 3 C-4.02 3 -2.04 3 0 3 C0 2.01 0 1.02 0 0 Z M1 7 C1 7.99 1 8.98 1 10 C-0.98 10 -2.96 10 -5 10 C-5 11.32 -5 12.64 -5 14 C-6.32 14 -7.64 14 -9 14 C-9 15.98 -9 17.96 -9 20 C-9.99 20 -10.98 20 -12 20 C-12 23.96 -12 27.92 -12 32 C-11.01 32 -10.02 32 -9 32 C-9 33.98 -9 35.96 -9 38 C-7.68 38 -6.36 38 -5 38 C-5 39.32 -5 40.64 -5 42 C-3.02 42 -1.04 42 1 42 C1 42.99 1 43.98 1 45 C4.96 45 8.92 45 13 45 C13 44.01 13 43.02 13 42 C14.98 42 16.96 42 19 42 C19 40.68 19 39.36 19 38 C20.32 38 21.64 38 23 38 C23 36.02 23 34.04 23 32 C23.99 32 24.98 32 26 32 C26 28.04 26 24.08 26 20 C25.01 20 24.02 20 23 20 C23 18.02 23 16.04 23 14 C21.68 14 20.36 14 19 14 C19 12.68 19 11.36 19 10 C17.02 10 15.04 10 13 10 C13 9.01 13 8.02 13 7 C9.04 7 5.08 7 1 7 Z " fill="#ffffff" transform="translate(25,6)"/>
<path d="M0 0 C2.64 0 5.28 0 8 0 C8 5.61 8 11.22 8 17 C5.36 17 2.72 17 0 17 C0 11.39 0 5.78 0 0 Z " fill="#ffffff" transform="translate(28,28)"/>
<path d="M0 0 C2.64 0 5.28 0 8 0 C8 2.31 8 4.62 8 7 C5.36 7 2.72 7 0 7 C0 4.69 0 2.38 0 0 Z " fill="#ffffff" transform="translate(28,19)"/>
</svg>