<svg xmlns="http://www.w3.org/2000/svg" version="1.0" width="600.000000pt" height="600.000000pt" viewBox="0 0 600.000000 600.000000" preserveAspectRatio="xMidYMid meet">

<g transform="translate(0.000000,600.000000) scale(0.100000,-0.100000)" fill="#ffffff" stroke="none">
<path d="M2755 5990 c-708 -58 -1372 -366 -1876 -869 -477 -477 -774 -1091 -860 -1776 -21 -168 -16 -552 10 -739 106 -770 493 -1453 1096 -1938 804 -647 1906 -831 2880 -481 1021 367 1772 1267 1944 2333 155 961 -154 1920 -839 2600 -484 481 -1070 768 -1744 855 -148 19 -465 27 -611 15z m-682 -1305 c263 -30 475 -255 502 -533 l7 -71 -64 -63 c-114 -113 -174 -223 -212 -389 -4 -20 -19 -32 -64 -52 -174 -78 -341 -77 -512 5 -148 71 -264 212 -311 378 -22 76 -17 244 10 321 58 175 188 311 356 374 62 24 182 46 215 39 8 -1 41 -5 73 -9z m2002 0 c220 -27 415 -197 481 -420 26 -87 24 -249 -5 -334 -66 -199 -225 -345 -431 -397 -85 -22 -230 -14 -317 16 -59 20 -63 24 -68 58 -32 193 -147 379 -298 480 l-38 25 7 56 c27 221 173 409 378 486 68 26 174 45 216 40 14 -2 48 -6 75 -10z m-938 -611 c42 -8 112 -33 155 -55 224 -113 356 -384 304 -627 -56 -268 -263 -452 -537 -477 -219 -20 -453 111 -556 311 -55 108 -68 162 -68 279 1 235 118 418 335 526 112 55 237 70 367 43z m-837 -636 c0 -111 73 -291 163 -399 l55 -66 -41 -13 c-159 -47 -352 -200 -453 -358 -98 -152 -135 -283 -142 -506 l-5 -158 -86 7 c-187 14 -438 61 -661 124 l-135 38 -3 344 c-3 366 3 435 49 552 70 181 229 343 408 418 123 51 177 57 529 58 l322 1 0 -42z m2165 8 c245 -83 425 -267 496 -506 22 -71 23 -96 27 -447 l3 -372 -38 -19 c-142 -73 -420 -140 -652 -157 -42 -3 -90 -8 -107 -11 l-31 -4 -5 157 c-6 166 -22 257 -64 365 -53 136 -163 280 -284 373 -65 50 -189 118 -248 136 l-40 12 53 65 c90 109 165 292 165 405 l0 39 323 -4 c319 -5 323 -5 402 -32z m-1014 -594 c244 -66 429 -231 518 -462 45 -116 51 -176 51 -541 l0 -336 -67 -31 c-243 -110 -664 -172 -1026 -151 -285 17 -501 55 -799 141 l-108 31 0 349 c0 377 6 435 56 558 71 176 223 329 400 403 141 59 207 66 589 63 275 -3 319 -6 386 -24z" fill="#ffffff"/>
</g>
</svg>